<?xml version="1.0" encoding="UTF-8"?>
<svg width="677px" height="269px" viewBox="0 0 677 269" version="1.1" xmlns="http://www.w3.org/2000/svg" xmlns:xlink="http://www.w3.org/1999/xlink">
    <!-- Generator: Sketch 63 (92445) - https://sketch.com -->
    <title>logo smc zdwjz</title>
    <desc>Created with Sketch.</desc>
    <defs>
        <polygon id="path-1" points="0.054 0.766 423.723 0.766 423.723 209.94 0.054 209.94"></polygon>
    </defs>
    <g id="Page-1" stroke="none" stroke-width="1" fill="none" fill-rule="evenodd">
        <g id="logo-smc-zdwjz">
            <g id="Group-3" transform="translate(0.000000, 59.000000)">
                <mask id="mask-2" fill="white">
                    <use xlink:href="#path-1"></use>
                </mask>
                <g id="Clip-2"></g>
                <polyline id="Fill-1" fill="#1F8EC2" mask="url(#mask-2)" points="0.054 0.766 0.054 150.903 371.462 150.903 423.723 210 423.723 0.766 0.054 0.766"></polyline>
            </g>
            <polyline id="Fill-4" fill="#422758" points="423.722 0.673 423.722 209.903 676.388 209.903 676.388 59.767 475.987 59.767 423.722 0.673"></polyline>
            <path d="M29.708,151.794 C32.196,153.396 35.79,154.613 39.643,154.613 C45.352,154.613 48.688,151.663 48.688,147.238 C48.688,143.27 46.382,140.888 40.545,138.714 C33.48,136.141 29.131,132.424 29.131,126.388 C29.131,119.653 34.705,114.648 43.114,114.648 C47.475,114.648 50.739,115.678 52.6,116.763 L51.057,121.319 C49.709,120.493 46.831,119.268 42.915,119.268 C37.015,119.268 34.768,122.794 34.768,125.748 C34.768,129.788 37.396,131.78 43.356,134.094 C50.676,136.98 54.329,140.439 54.329,146.788 C54.329,153.46 49.459,159.292 39.265,159.292 C35.082,159.292 30.534,158.016 28.224,156.473 L29.708,151.794" id="Fill-5" fill="#FFFFFE"></path>
            <path d="M83.978,157.5 C82.508,158.208 79.236,159.301 75.065,159.301 C65.693,159.301 59.594,152.952 59.594,143.394 C59.594,133.836 66.147,126.834 76.285,126.834 C79.621,126.834 82.563,127.673 84.097,128.508 L82.821,132.802 C81.465,132.103 79.358,131.323 76.285,131.323 C69.152,131.323 65.308,136.651 65.308,143.131 C65.308,150.316 69.928,154.745 76.086,154.745 C79.291,154.745 81.418,153.969 83.016,153.27 L83.978,157.5" id="Fill-6" fill="#FFFFFE"></path>
            <path d="M90.594,113.046 L96.231,113.046 L96.231,132.416 L96.37,132.416 C97.269,130.809 98.68,129.334 100.414,128.444 C102.076,127.414 104.063,126.834 106.187,126.834 C110.358,126.834 117.016,129.402 117.016,140.117 L117.016,158.593 L111.375,158.593 L111.375,140.766 C111.375,135.688 109.506,131.526 104.195,131.526 C100.533,131.526 97.718,134.094 96.625,137.163 C96.307,137.934 96.231,138.765 96.231,139.871 L96.231,158.593 L90.594,158.593 L90.594,113.046" id="Fill-7" fill="#FFFFFE"></path>
            <path d="M145.894,139.991 C145.974,136.456 144.423,130.811 138.137,130.811 C132.369,130.811 129.923,136.075 129.482,139.991 L145.894,139.991 M129.41,144.022 C129.542,151.673 134.339,154.809 140.002,154.809 C144.037,154.809 146.546,154.105 148.594,153.266 L149.628,157.246 C147.631,158.149 144.164,159.234 139.226,159.234 C129.719,159.234 123.955,152.885 123.955,143.585 C123.955,134.159 129.542,126.775 138.582,126.775 C148.725,126.775 151.357,135.689 151.357,141.398 C151.357,142.551 151.285,143.454 151.162,144.094 L129.41,144.022" id="Fill-8" fill="#FFFFFE"></path>
            <polygon id="Fill-9" fill="#FFFFFE" points="158.351 158.594 163.996 158.594 163.996 113.043 158.351 113.043"></polygon>
            <path d="M194.54,140.186 C194.54,139.415 194.464,138.516 194.29,137.74 C193.451,134.214 190.365,131.264 186.135,131.264 C180.286,131.264 176.831,136.401 176.831,143.195 C176.831,149.544 179.98,154.737 186.008,154.737 C189.789,154.737 193.256,152.177 194.29,148.006 C194.464,147.235 194.54,146.463 194.54,145.565 L194.54,140.186 M200.19,113.047 L200.19,150.575 C200.19,153.334 200.253,156.474 200.448,158.594 L195.371,158.594 L195.112,153.202 L194.985,153.202 C193.256,156.67 189.538,159.293 184.465,159.293 C176.959,159.293 171.126,152.935 171.126,143.522 C171.054,133.12 177.535,126.831 185.054,126.831 C189.848,126.831 193.061,129.077 194.408,131.527 L194.54,131.527 L194.54,113.047 L200.19,113.047" id="Fill-10" fill="#FFFFFE"></path>
            <path d="M229.253,139.991 C229.329,136.456 227.773,130.811 221.484,130.811 C215.719,130.811 213.286,136.075 212.833,139.991 L229.253,139.991 M212.765,144.022 C212.896,151.673 217.703,154.809 223.344,154.809 C227.388,154.809 229.901,154.105 231.953,153.266 L232.978,157.246 C230.986,158.149 227.519,159.234 222.577,159.234 C213.083,159.234 207.318,152.885 207.318,143.585 C207.318,134.159 212.896,126.775 221.933,126.775 C232.088,126.775 234.703,135.689 234.703,141.398 C234.703,142.551 234.648,143.454 234.521,144.094 L212.765,144.022" id="Fill-11" fill="#FFFFFE"></path>
            <path d="M241.701,135.948 C241.701,132.676 241.578,130.116 241.451,127.548 L246.389,127.548 L246.652,132.545 L246.846,132.545 C248.567,129.599 251.454,126.844 256.654,126.844 C260.833,126.844 264.025,129.404 265.373,133.062 L265.509,133.062 C266.454,131.265 267.759,129.981 269.044,129.019 C270.892,127.607 272.888,126.844 275.825,126.844 C280.004,126.844 286.099,129.536 286.099,140.306 L286.099,158.595 L280.581,158.595 L280.581,141.013 C280.581,134.986 278.33,131.464 273.841,131.464 C270.578,131.464 268.137,133.833 267.111,136.525 C266.865,137.36 266.653,138.386 266.653,139.348 L266.653,158.595 L261.147,158.595 L261.147,139.988 C261.147,134.986 258.964,131.464 254.667,131.464 C251.195,131.464 248.567,134.278 247.673,137.101 C247.347,137.936 247.215,138.899 247.215,139.861 L247.215,158.595 L241.701,158.595 L241.701,135.948" id="Fill-12" fill="#FFFFFE"></path>
            <path d="M308.043,155.066 C313.435,155.066 317.491,149.993 317.491,142.94 C317.491,137.684 314.863,131.068 308.183,131.068 C301.571,131.068 298.689,137.231 298.689,143.135 C298.689,149.929 302.542,155.066 307.988,155.066 L308.043,155.066 M307.853,159.292 C299.528,159.292 292.984,153.134 292.984,143.321 C292.984,132.937 299.842,126.834 308.374,126.834 C317.287,126.834 323.323,133.319 323.323,142.745 C323.323,154.287 315.308,159.292 307.929,159.292 L307.853,159.292" id="Fill-13" fill="#FFFFFE"></path>
            <path d="M330.446,135.948 C330.446,132.676 330.387,130.116 330.196,127.548 L335.189,127.548 L335.511,132.604 L335.642,132.604 C337.185,129.735 340.779,126.844 345.917,126.844 C350.206,126.844 356.877,129.404 356.877,140.051 L356.877,158.595 L351.232,158.595 L351.232,140.696 C351.232,135.69 349.371,131.464 344.06,131.464 C340.385,131.464 337.499,134.084 336.49,137.228 C336.223,137.936 336.087,138.962 336.087,139.861 L336.087,158.595 L330.446,158.595 L330.446,135.948" id="Fill-14" fill="#FFFFFE"></path>
            <path d="M387.232,140.186 C387.232,139.415 387.164,138.516 386.977,137.74 C386.147,134.214 383.057,131.26 378.839,131.26 C372.995,131.26 369.528,136.401 369.528,143.195 C369.528,149.544 372.677,154.737 378.7,154.737 C382.484,154.737 385.947,152.177 386.977,148.006 C387.164,147.235 387.232,146.463 387.232,145.565 L387.232,140.186 Z M392.877,113.047 L392.877,150.575 C392.877,153.334 392.945,156.474 393.132,158.594 L388.079,158.594 L387.808,153.202 L387.677,153.202 C385.947,156.67 382.235,159.293 377.161,159.293 C369.659,159.293 363.822,152.935 363.822,143.522 C363.75,133.12 370.235,126.831 377.746,126.831 C382.544,126.831 385.769,129.077 387.105,131.527 L387.232,131.527 L387.232,113.047 L392.877,113.047 L392.877,113.047 Z" id="Fill-15" fill="#FFFFFE"></path>
            <path d="M484.251,157.245 C482.262,158.271 478.079,159.293 472.828,159.293 C460.638,159.293 451.525,151.596 451.525,137.358 C451.525,123.761 460.705,114.644 474.112,114.644 C479.435,114.644 482.915,115.801 484.378,116.573 L482.971,121.125 C480.919,120.095 477.893,119.34 474.315,119.34 C464.172,119.34 457.433,125.808 457.433,137.163 C457.433,147.811 463.537,154.546 473.989,154.546 C477.448,154.546 480.919,153.846 483.153,152.753 L484.251,157.245" id="Fill-16" fill="#FFFFFE"></path>
            <path d="M503.131,155.066 C508.509,155.066 512.557,149.993 512.557,142.94 C512.557,137.684 509.925,131.068 503.245,131.068 C496.637,131.068 493.751,137.231 493.751,143.135 C493.751,149.929 497.599,155.066 503.055,155.066 L503.131,155.066 Z M502.927,159.292 C494.59,159.292 488.054,153.134 488.054,143.321 C488.054,132.937 494.904,126.834 503.444,126.834 C512.371,126.834 518.385,133.319 518.385,142.745 C518.385,154.287 510.379,159.292 502.991,159.292 L502.927,159.292 L502.927,159.292 Z" id="Fill-17" fill="#FFFFFE"></path>
            <polygon id="Fill-18" fill="#FFFFFE" points="525.516 158.594 531.17 158.594 531.17 113.043 525.516 113.043"></polygon>
            <polygon id="Fill-19" fill="#FFFFFE" points="540.533 158.594 546.178 158.594 546.178 113.043 540.533 113.043"></polygon>
            <path d="M575.249,139.991 C575.304,136.456 573.77,130.811 567.48,130.811 C561.711,130.811 559.27,136.075 558.825,139.991 L575.249,139.991 Z M558.753,144.022 C558.884,151.673 563.699,154.809 569.336,154.809 C573.376,154.809 575.893,154.105 577.945,153.266 L578.971,157.246 C576.983,158.149 573.507,159.234 568.565,159.234 C559.079,159.234 553.302,152.885 553.302,143.585 C553.302,134.159 558.884,126.775 567.933,126.775 C578.072,126.775 580.7,135.689 580.7,141.398 C580.7,142.551 580.623,143.454 580.5,144.094 L558.753,144.022 L558.753,144.022 Z" id="Fill-20" fill="#FFFFFE"></path>
            <path d="M608.609,139.728 C608.609,138.834 608.541,137.995 608.287,137.228 C607.269,133.896 604.565,131.205 600.395,131.205 C595.012,131.205 591.151,135.749 591.151,143.005 C591.151,149.028 594.308,154.165 600.339,154.165 C603.866,154.165 607.003,151.986 608.164,148.329 C608.486,147.434 608.609,146.345 608.609,145.315 L608.609,139.728 Z M614.263,154.033 C614.263,161.218 612.784,165.524 609.825,168.275 C606.744,171.03 602.387,172 598.483,172 C594.758,172 590.65,171.093 588.158,169.428 L589.561,165.07 C591.613,166.414 594.821,167.571 598.67,167.571 C604.434,167.571 608.681,164.562 608.681,156.67 L608.681,153.27 L608.541,153.27 C606.867,156.153 603.472,158.463 598.67,158.463 C590.973,158.463 585.454,151.919 585.454,143.259 C585.454,132.739 592.32,126.843 599.5,126.843 C604.887,126.843 607.774,129.599 609.181,132.163 L609.317,132.163 L609.512,127.543 L614.517,127.543 C614.314,129.734 614.263,132.226 614.263,136.007 L614.263,154.033 L614.263,154.033 Z" id="Fill-21" fill="#FFFFFE"></path>
            <path d="M643.264,139.991 C643.327,136.456 641.784,130.811 635.486,130.811 C629.734,130.811 627.297,136.075 626.844,139.991 L643.264,139.991 Z M626.767,144.022 C626.899,151.673 631.718,154.809 637.359,154.809 C641.399,154.809 643.912,154.105 645.959,153.266 L646.985,157.246 C644.989,158.149 641.522,159.234 636.579,159.234 C627.098,159.234 621.317,152.885 621.317,143.585 C621.317,134.159 626.899,126.775 635.948,126.775 C646.086,126.775 648.714,135.689 648.714,141.398 C648.714,142.551 648.646,143.454 648.524,144.094 L626.767,144.022 L626.767,144.022 Z" id="Fill-22" fill="#FFFFFE"></path>
        </g>
    </g>
</svg>